<svg width="31" height="30" viewBox="0 0 31 30" fill="none" xmlns="http://www.w3.org/2000/svg">
<path fill-rule="evenodd" clip-rule="evenodd" d="M21.86 22.095C21.716 21.64 21.465 21.222 21.121 20.879C20.559 20.316 19.796 20 19 20H14.379C13.642 19.382 11.743 18 9.5 18C7.256 18 5.356 19.385 4.62 20.003L2.996 20.004C1.341 20.006 0 21.349 0 23.004C0 24.226 0 25.784 0 27.006C0 27.802 0.316 28.565 0.879 29.128C1.442 29.69 2.205 30.006 3.001 30.006L20.659 30C21.803 30 22.904 29.568 23.744 28.791L29.15 23.786C30.165 22.846 30.347 21.308 29.58 20.157L29.508 20.05C29.078 19.404 28.4 18.964 27.635 18.835C26.869 18.706 26.085 18.898 25.466 19.366L21.86 22.095ZM20 23C20 22.735 19.895 22.48 19.707 22.293C19.52 22.105 19.265 22 19 22H14C13.735 22 13.48 21.895 13.293 21.707C13.293 21.707 11.612 20 9.5 20C7.389 20 5.707 21.708 5.707 21.708C5.52 21.896 5.068 22.318 5.001 22.527V28.006L20.658 28C21.298 28 21.915 27.758 22.385 27.323L27.791 22.318C28.085 22.046 28.138 21.6 27.916 21.266L27.844 21.159C27.72 20.972 27.523 20.845 27.301 20.807C27.079 20.77 26.852 20.825 26.673 20.961L21.603 24.797C21.337 25 21 25 21 25H13C12.448 25 12 24.552 12 24C12 23.448 12.448 23 13 23H20ZM20.864 6.483C20.349 6.726 19.875 7.058 19.464 7.468C19.097 7.835 18.793 8.254 18.558 8.707C18.421 8.626 18.28 8.551 18.136 8.483C18.677 7.801 19 6.938 19 6V4C19 3.47 18.789 2.961 18.414 2.586C18.039 2.211 17.53 2 17 2C15.89 2 14.11 2 13 2C12.47 2 11.961 2.211 11.586 2.586C11.211 2.961 11 3.47 11 4C11 4.555 11 5.277 11 6C11 6.906 11.307 7.78 11.864 8.483C11.72 8.551 11.579 8.626 11.442 8.707C11.207 8.254 10.903 7.835 10.536 7.468C10.125 7.058 9.651 6.726 9.136 6.483C9.677 5.801 10 4.938 10 4V2C10 1.47 9.789 0.961 9.414 0.586C9.039 0.211 8.53 0 8 0C6.89 0 5.11 0 4 0C3.47 0 2.961 0.211 2.586 0.586C2.211 0.961 2 1.47 2 2C2 2.555 2 3.277 2 4C2 4.906 2.307 5.78 2.864 6.483C2.349 6.726 1.875 7.058 1.464 7.468C0.527 8.406 0 9.677 0 11.003V12C0 13.105 0.895 14 2 14H9C9 15.105 9.895 16 11 16H19C20.105 16 21 15.105 21 14H28C29.105 14 30 13.105 30 12V11.003C30 9.677 29.473 8.406 28.536 7.468C28.125 7.058 27.651 6.726 27.136 6.483C27.677 5.801 28 4.938 28 4V2C28 1.47 27.789 0.961 27.414 0.586C27.039 0.211 26.53 0 26 0C24.89 0 23.11 0 22 0C21.47 0 20.961 0.211 20.586 0.586C20.211 0.961 20 1.47 20 2C20 2.555 20 3.277 20 4C20 4.906 20.307 5.78 20.864 6.483ZM14 10.003C13.204 10.003 12.441 10.319 11.879 10.882C11.316 11.445 11 12.208 11 13.003V14H19V13.003C19 12.208 18.684 11.445 18.121 10.882C17.559 10.319 16.796 10.003 16 10.003V11C16 11.552 15.552 12 15 12C14.448 12 14 11.552 14 11V10.003ZM13 4H17V6C17 7.105 16.105 8 15 8C14.47 8 13.961 7.789 13.586 7.414C13.211 7.039 13 6.53 13 6V4ZM22 2H26V4C26 5.105 25.105 6 24 6C23.47 6 22.961 5.789 22.586 5.414C22.211 5.039 22 4.53 22 4V2ZM4 2H8V4C8 5.105 7.105 6 6 6C5.47 6 4.961 5.789 4.586 5.414C4.211 5.039 4 4.53 4 4V2Z" fill="#80DAEB"/>
</svg>
